<svg xmlns="http://www.w3.org/2000/svg" viewBox="0 0 477.85 180.88"><g id="Layer_2" data-name="Layer 2"><g id="Layer_1-2" data-name="Layer 1"><path d="M256.52,60.87q8.57,8.57,8.57,25.7v44.36H242.63V90q0-9.21-3.82-13.75t-10.87-4.54q-7.92,0-12.53,5.11t-4.61,15.2v38.88H188.34V90q0-18.28-14.69-18.29-7.77,0-12.38,5.11t-4.61,15.2v38.88H134.2V53.45h21.45v8.93a28.42,28.42,0,0,1,10.59-7.49A35.75,35.75,0,0,1,180,52.3a33.32,33.32,0,0,1,14.83,3.24A26.38,26.38,0,0,1,205.48,65a31.73,31.73,0,0,1,12-9.36,38.05,38.05,0,0,1,15.91-3.31Q248,52.3,256.52,60.87Z" style="fill:#fff;stroke:#fff;stroke-miterlimit:10"/><path d="M396.78,60.87q8.57,8.57,8.57,25.7v44.36H382.88V90q0-9.21-3.81-13.75T368.2,71.74q-7.93,0-12.53,5.11t-4.61,15.2v38.88H328.6V90q0-18.28-14.69-18.29-7.79,0-12.39,5.11t-4.6,15.2v38.88H274.45V53.45h21.46v8.93a28.38,28.38,0,0,1,10.58-7.49,35.78,35.78,0,0,1,13.75-2.59,33.33,33.33,0,0,1,14.84,3.24A26.35,26.35,0,0,1,345.73,65a31.84,31.84,0,0,1,12-9.36,38,38,0,0,1,15.91-3.31Q388.21,52.3,396.78,60.87Z" style="fill:#fff;stroke:#fff;stroke-miterlimit:10"/><path d="M421.91,129.7a49.16,49.16,0,0,1-14.69-6l7.49-16.13a46.94,46.94,0,0,0,12.52,5.4,52.65,52.65,0,0,0,14.41,2.09q14.25,0,14.25-7.06,0-3.32-3.89-4.75a57.32,57.32,0,0,0-11.95-2.45,115.37,115.37,0,0,1-15.7-3.31,24.36,24.36,0,0,1-10.72-6.63q-4.54-4.74-4.54-13.53a21.2,21.2,0,0,1,4.25-13q4.25-5.69,12.38-8.86A52.92,52.92,0,0,1,445,52.3a75.4,75.4,0,0,1,16.34,1.8,45.73,45.73,0,0,1,13.46,5l-7.48,16A44.83,44.83,0,0,0,445,69.29c-4.81,0-8.4.68-10.8,2s-3.6,3.07-3.6,5.18c0,2.4,1.29,4.09,3.88,5a67.68,67.68,0,0,0,12.39,2.74,133.63,133.63,0,0,1,15.55,3.38,23.42,23.42,0,0,1,10.51,6.56q4.47,4.74,4.47,13.24A20.44,20.44,0,0,1,473,120.27q-4.32,5.61-12.6,8.71a56.3,56.3,0,0,1-19.66,3.1A74.94,74.94,0,0,1,421.91,129.7Z" style="fill:#fff;stroke:#fff;stroke-miterlimit:10"/><polygon points="146.65 129.89 146.65 50.99 78.32 11.55 10 50.99 10 129.89 78.32 169.33 146.65 129.89" style="fill:none;stroke:#fff;stroke-miterlimit:10;stroke-width:20px"/><polygon points="116.85 112.68 116.85 68.2 78.32 45.95 39.8 68.2 39.8 112.68 78.32 134.93 116.85 112.68" style="fill:none;stroke:#fff;stroke-miterlimit:10;stroke-width:5px"/><polygon points="105.27 105.99 105.27 74.88 78.32 59.33 51.38 74.88 51.38 105.99 78.32 121.55 105.27 105.99" style="fill:none;stroke:#fff;stroke-miterlimit:10;stroke-width:5px"/></g></g></svg>